<?xml version="1.0" standalone="no"?>
<!DOCTYPE svg PUBLIC "-//W3C//DTD SVG 20010904//EN"
 "http://www.w3.org/TR/2001/REC-SVG-20010904/DTD/svg10.dtd">
<svg version="1.0" xmlns="http://www.w3.org/2000/svg"
 width="157.000000pt" height="66.000000pt" viewBox="0 0 157.000000 66.000000"
 preserveAspectRatio="xMidYMid meet">

<g transform="translate(0.000000,66.000000) scale(0.100000,-0.100000)"
fill="#000000" stroke="none">
<path d="M280 495 l0 -55 -75 0 c-69 0 -75 -2 -75 -20 0 -19 5 -21 78 -18 l77
3 5 60 c5 59 5 60 38 63 l32 3 0 -53 c0 -30 5 -59 12 -66 7 -7 39 -12 75 -12
l63 0 0 -40 0 -40 -75 0 -75 0 0 -60 c0 -60 0 -60 -30 -60 -28 0 -29 1 -32 58
l-3 57 -82 3 c-69 2 -83 0 -83 -13 0 -12 14 -15 75 -15 l75 0 0 -55 0 -55 50
0 50 0 0 55 0 55 75 0 75 0 0 75 0 75 -75 0 -75 0 0 55 0 55 -50 0 -50 0 0
-55z"/>
<path d="M580 510 c0 -23 4 -30 20 -30 25 0 36 25 20 45 -21 25 -40 18 -40
-15z m33 6 c6 -15 -1 -26 -15 -26 -4 0 -8 9 -8 20 0 23 15 27 23 6z"/>
<path d="M641 508 c0 -18 3 -27 6 -20 3 9 9 10 17 2 10 -8 13 -3 12 17 -1 18
-7 29 -18 31 -14 3 -18 -3 -17 -30z m29 12 c0 -5 -4 -10 -10 -10 -5 0 -10 5
-10 10 0 6 5 10 10 10 6 0 10 -4 10 -10z"/>
<path d="M702 528 c-16 -16 -15 -33 2 -47 22 -18 48 -2 44 28 -3 28 -27 38
-46 19z m33 -21 c0 -26 -20 -25 -23 2 -3 16 1 22 10 19 7 -3 13 -12 13 -21z"/>
<path d="M765 519 c-10 -30 18 -57 39 -39 21 17 20 30 -1 30 -15 0 -16 -2 -3
-10 13 -8 13 -10 -2 -10 -32 0 -31 30 2 43 10 4 8 6 -7 6 -14 1 -24 -7 -28
-20z"/>
<path d="M841 522 c-16 -30 -14 -37 14 -37 29 0 29 1 11 34 -13 24 -14 24 -25
3z m19 -12 c0 -5 -5 -10 -11 -10 -5 0 -7 5 -4 10 3 6 8 10 11 10 2 0 4 -4 4
-10z"/>
<path d="M890 513 c0 -21 5 -29 18 -29 24 0 24 49 0 54 -14 3 -18 -3 -18 -25z
m25 7 c3 -5 1 -10 -4 -10 -6 0 -11 5 -11 10 0 6 2 10 4 10 3 0 8 -4 11 -10z"/>
<path d="M940 511 c0 -17 5 -31 10 -31 6 0 10 11 10 24 0 14 -4 28 -10 31 -6
4 -10 -7 -10 -24z"/>
<path d="M980 521 c-15 -29 -13 -36 14 -37 22 -2 23 0 14 27 -12 34 -14 35
-28 10z m20 -11 c0 -5 -5 -10 -11 -10 -5 0 -7 5 -4 10 3 6 8 10 11 10 2 0 4
-4 4 -10z"/>
<path d="M1030 526 c0 -8 5 -18 11 -22 8 -5 8 -9 -1 -14 -7 -4 -8 -10 -3 -13
5 -3 15 -1 23 4 13 8 12 12 -5 25 -17 13 -18 16 -5 24 13 8 12 10 -2 10 -10 0
-18 -6 -18 -14z"/>
<path d="M1345 480 c-3 -5 -5 -10 -3 -11 37 -10 58 -8 58 6 0 17 -45 21 -55 5z"/>
<path d="M613 440 c-73 -29 -47 -160 32 -160 31 0 61 20 49 33 -4 3 -18 4 -33
1 -35 -7 -53 15 -49 58 3 30 6 33 41 36 38 3 51 24 21 36 -20 8 -34 7 -61 -4z"/>
<path d="M751 418 c-33 -89 -44 -128 -37 -135 4 -4 13 0 20 10 16 21 74 23 82
3 3 -8 18 -13 37 -12 31 1 32 4 41 56 l10 55 16 -55 c10 -33 22 -55 30 -55 8
0 21 22 30 55 l17 55 7 -57 c5 -43 12 -58 23 -58 13 0 15 9 9 57 -10 86 -16
103 -37 103 -17 0 -39 -49 -39 -87 0 -7 -4 -13 -10 -13 -5 0 -10 6 -10 13 0 6
-5 29 -11 50 -7 26 -16 37 -29 37 -14 0 -21 -12 -29 -50 -6 -28 -11 -61 -11
-72 0 -33 -13 -13 -36 55 -16 48 -26 63 -42 65 -15 2 -25 -4 -31 -20z m42 -48
c3 -13 0 -23 -9 -27 -21 -8 -26 1 -18 31 7 29 19 27 27 -4z"/>
<path d="M1064 426 c-3 -7 -4 -42 -2 -77 2 -49 7 -64 18 -64 9 0 16 11 18 28
3 22 8 27 32 27 45 0 66 52 34 84 -19 20 -93 21 -100 2z m76 -36 c0 -13 -7
-20 -20 -20 -13 0 -20 7 -20 20 0 13 7 20 20 20 13 0 20 -7 20 -20z"/>
<path d="M1204 426 c-3 -7 -4 -42 -2 -77 l3 -64 39 0 c23 0 41 5 44 13 2 7 -6
12 -22 12 -19 0 -26 5 -26 20 0 15 7 20 26 20 31 0 28 23 -4 28 -31 5 -28 32
3 32 16 0 25 6 25 15 0 20 -78 21 -86 1z"/>
<path d="M1327 368 c-18 -49 -23 -76 -16 -83 7 -7 14 -4 20 8 13 23 68 23 85
0 26 -36 28 0 4 70 -19 56 -30 73 -46 75 -18 3 -25 -8 -47 -70z m62 -15 c1
-14 -25 -18 -32 -5 -3 4 0 18 5 32 10 24 11 24 18 5 5 -11 9 -26 9 -32z"/>
<path d="M790 105 c0 -31 3 -35 27 -35 l27 0 -22 16 c-18 13 -21 19 -11 30 17
21 31 17 24 -6 -5 -14 -2 -20 9 -20 9 0 16 6 16 13 0 20 -22 37 -47 37 -20 0
-23 -5 -23 -35z"/>
<path d="M861 137 c2 -1 12 -9 22 -16 14 -12 17 -11 17 3 0 10 -8 16 -22 16
-12 0 -19 -1 -17 -3z"/>
<path d="M874 85 c-19 -14 -18 -14 4 -15 13 0 22 6 22 15 0 19 -1 19 -26 0z"/>
</g>
</svg>
