<?xml version="1.0" standalone="no"?>
<!DOCTYPE svg PUBLIC "-//W3C//DTD SVG 20010904//EN"
 "http://www.w3.org/TR/2001/REC-SVG-20010904/DTD/svg10.dtd">
<svg version="1.0" xmlns="http://www.w3.org/2000/svg"
 width="32.000000pt" height="32.000000pt" viewBox="0 0 32.000000 32.000000"
 preserveAspectRatio="xMidYMid meet">

<g transform="translate(0.000000,32.000000) scale(0.100000,-0.100000)"
fill="#000000" stroke="none">
<path d="M38 203 c7 -3 16 -2 19 1 4 3 -2 6 -13 5 -11 0 -14 -3 -6 -6z"/>
<path d="M88 203 c7 -3 16 -2 19 1 4 3 -2 6 -13 5 -11 0 -14 -3 -6 -6z"/>
<path d="M120 199 c0 -5 5 -7 10 -4 6 3 10 8 10 11 0 2 -4 4 -10 4 -5 0 -10
-5 -10 -11z"/>
<path d="M151 195 c3 -38 -1 -47 -16 -41 -8 3 -15 1 -15 -4 0 -5 13 -8 30 -7
25 2 29 5 24 22 -4 11 -11 27 -15 35 -8 12 -9 11 -8 -5z"/>
<path d="M182 195 c0 -11 3 -29 7 -40 7 -17 9 -16 16 13 4 18 4 36 1 39 -3 4
-6 -5 -7 -18 l-1 -24 -8 25 c-6 20 -8 21 -8 5z"/>
<path d="M224 185 c-1 -14 2 -22 7 -19 11 6 12 44 2 44 -5 0 -9 -11 -9 -25z"/>
<path d="M270 175 c0 -14 -5 -25 -12 -25 -6 0 -9 -2 -6 -5 3 -3 13 -3 22 1 17
7 23 54 6 54 -5 0 -10 -11 -10 -25z"/>
<path d="M90 150 c-9 -6 -10 -10 -3 -10 6 0 15 5 18 10 8 12 4 12 -15 0z"/>
<path d="M38 143 c7 -3 16 -2 19 1 4 3 -2 6 -13 5 -11 0 -14 -3 -6 -6z"/>
</g>
</svg>
